<svg viewBox="0 0 76 76" xmlns="http://www.w3.org/2000/svg" xmlns:xlink="http://www.w3.org/1999/xlink"><svg width="24" height="24" viewBox="0 0 24 24" id="back_24" x="28" xmlns="http://www.w3.org/2000/svg"><g fill="none" fill-rule="evenodd"><path d="M24 0H0v24h24z"/><path d="M7.8 11l4.9 -4.9a0.99 0.99 0 0 0 -1.4 -1.4l-6.593 6.593a1 1 0 0 0 0 1.414L11.3 19.3a0.99 0.99 0 0 0 1.4 -1.4L7.8 13H20a1 1 0 0 0 0 -2H7.8z" fill="#528BCC"/></g></svg><svg width="24" height="24" viewBox="0 0 24 24" id="cancel_24" y="28" xmlns="http://www.w3.org/2000/svg"><defs><path d="M18.3 5.7a0.99 0.99 0 0 0 -1.4 0L12 10.6 7.1 5.7a0.99 0.99 0 0 0 -1.4 1.4l4.9 4.9 -4.9 4.9a0.99 0.99 0 0 0 1.4 1.4l4.9 -4.9 4.9 4.9a0.99 0.99 0 0 0 1.4 -1.4L13.4 12l4.9 -4.9a0.99 0.99 0 0 0 0 -1.4z" id="ba"/></defs><g fill="none" fill-rule="evenodd"><path opacity=".1" d="M0 0h24v24H0z"/><use fill="#528BCC" fill-rule="nonzero" xlink:href="#ba"/></g></svg><svg width="24" height="24" viewBox="0 0 24 24" id="cancel_outline_24" x="24" y="28" xmlns="http://www.w3.org/2000/svg"><defs><path d="M18.3 5.7a0.99 0.99 0 0 0 -1.4 0L12 10.6 7.1 5.7a0.99 0.99 0 0 0 -1.4 1.4l4.9 4.9 -4.9 4.9a0.99 0.99 0 0 0 1.4 1.4l4.9 -4.9 4.9 4.9a0.99 0.99 0 0 0 1.4 -1.4L13.4 12l4.9 -4.9a0.99 0.99 0 0 0 0 -1.4z" id="ca"/></defs><g fill="none" fill-rule="evenodd"><path opacity=".1" d="M0 0h24v24H0z"/><use fill="#818C99" fill-rule="nonzero" xlink:href="#ca"/></g></svg><svg height="24" width="24" viewBox="0 0 24 24" id="favorites_24" x="52" xmlns="http://www.w3.org/2000/svg"><linearGradient id="da" x1="0%" y1="0%" y2="100%"><stop offset="0" stop-color="#ffb73d"/><stop offset="1" stop-color="#ffa000"/></linearGradient><g fill="none"><circle cx="12" cy="12" fill="url(#da)" r="12"/><path d="M14.011 9.417l2.663 0.261c0.926 0.091 1.21 1.017 0.495 1.625l-2.085 1.773 0.774 2.888c0.255 0.948 -0.534 1.522 -1.324 0.952l-2.533 -1.83 -2.533 1.83c-0.786 0.568 -1.578 -0.004 -1.324 -0.952l0.774 -2.888 -2.085 -1.773c-0.718 -0.61 -0.435 -1.534 0.495 -1.625l2.663 -0.261 1.173 -2.767c0.367 -0.867 1.308 -0.866 1.675 0z" fill="#fff"/></g></svg><svg width="24" height="24" viewBox="0 0 24 24" id="qr_24" x="52" y="24" xmlns="http://www.w3.org/2000/svg"><g fill="none" fill-rule="evenodd"><path d="M0 0h24v24H0z"/><path d="M19.5 19H21a0.5 0.5 0 0 1 0.5 0.5V21a0.5 0.5 0 0 1 -0.5 0.5h-1.5a0.5 0.5 0 0 1 -0.5 -0.5v-1.5a0.5 0.5 0 0 1 0.5 -0.5zM14 19h1.5a0.5 0.5 0 0 1 0.5 0.5V21a0.5 0.5 0 0 1 -0.5 0.5H14a0.5 0.5 0 0 1 -0.5 -0.5v-1.5a0.5 0.5 0 0 1 0.5 -0.5zm2.75 -2.75h1.5a0.5 0.5 0 0 1 0.5 0.5v1.5a0.5 0.5 0 0 1 -0.5 0.5h-1.5a0.5 0.5 0 0 1 -0.5 -0.5v-1.5a0.5 0.5 0 0 1 0.5 -0.5zm2.75 -2.75H21a0.5 0.5 0 0 1 0.5 0.5v1.5a0.5 0.5 0 0 1 -0.5 0.5h-1.5a0.5 0.5 0 0 1 -0.5 -0.5V14a0.5 0.5 0 0 1 0.5 -0.5zm-5.5 0h1.5a0.5 0.5 0 0 1 0.5 0.5v1.5a0.5 0.5 0 0 1 -0.5 0.5H14a0.5 0.5 0 0 1 -0.5 -0.5V14a0.5 0.5 0 0 1 0.5 -0.5zM4.5 13h4a2.5 2.5 0 0 1 2.5 2.5v4A2.5 2.5 0 0 1 8.5 22h-4A2.5 2.5 0 0 1 2 19.5v-4A2.5 2.5 0 0 1 4.5 13zm0.25 1.75a1 1 0 0 0 -1 1v3.5a1 1 0 0 0 1 1h3.5a1 1 0 0 0 1 -1v-3.5a1 1 0 0 0 -1 -1h-3.5zm1 1.5h1.5a0.5 0.5 0 0 1 0.5 0.5v1.5a0.5 0.5 0 0 1 -0.5 0.5h-1.5a0.5 0.5 0 0 1 -0.5 -0.5v-1.5a0.5 0.5 0 0 1 0.5 -0.5zM15.5 2h4A2.5 2.5 0 0 1 22 4.5v4a2.5 2.5 0 0 1 -2.5 2.5h-4A2.5 2.5 0 0 1 13 8.5v-4A2.5 2.5 0 0 1 15.5 2zm0.25 1.75a1 1 0 0 0 -1 1v3.5a1 1 0 0 0 1 1h3.5a1 1 0 0 0 1 -1v-3.5a1 1 0 0 0 -1 -1h-3.5zm1 1.5h1.5a0.5 0.5 0 0 1 0.5 0.5v1.5a0.5 0.5 0 0 1 -0.5 0.5h-1.5a0.5 0.5 0 0 1 -0.5 -0.5v-1.5a0.5 0.5 0 0 1 0.5 -0.5zM4.5 2h4A2.5 2.5 0 0 1 11 4.5v4A2.5 2.5 0 0 1 8.5 11h-4A2.5 2.5 0 0 1 2 8.5v-4A2.5 2.5 0 0 1 4.5 2zm0.25 1.75a1 1 0 0 0 -1 1v3.5a1 1 0 0 0 1 1h3.5a1 1 0 0 0 1 -1v-3.5a1 1 0 0 0 -1 -1h-3.5zm1 1.5h1.5a0.5 0.5 0 0 1 0.5 0.5v1.5a0.5 0.5 0 0 1 -0.5 0.5h-1.5a0.5 0.5 0 0 1 -0.5 -0.5v-1.5a0.5 0.5 0 0 1 0.5 -0.5z" fill="#aaaeb3"/></g></svg><svg width="28" height="28" viewBox="0 0 28 28" id="send_28" xmlns="http://www.w3.org/2000/svg"><defs><path d="M6.934 18.123c-0.763 2.044 -1.242 3.48 -1.438 4.307 -0.615 2.599 -1.062 3.184 1.23 1.949 2.29 -1.235 13.384 -7.352 15.86 -8.711 3.226 -1.772 3.269 -1.634 -0.174 -3.516 -2.622 -1.433 -13.585 -7.39 -15.687 -8.56 -2.101 -1.17 -1.844 -0.65 -1.23 1.949 0.2 0.838 0.686 2.287 1.46 4.346a4.4 4.4 0 0 0 3.29 2.772l6.432 1.233a0.11 0.11 0 0 1 0 0.216L10.23 15.34a4.4 4.4 0 0 0 -3.296 2.783z" id="fa"/></defs><g fill="none" fill-rule="evenodd"><path d="M0 0h28v28H0z"/><use fill="#AAAEB3" fill-rule="nonzero" xlink:href="#fa"/></g></svg><svg width="24" height="24" viewBox="0 0 24 24" id="send_active_24" y="52" xmlns="http://www.w3.org/2000/svg"><defs><path d="M5.739 15.754c-0.686 1.855 -1.117 3.158 -1.293 3.91 -0.553 2.362 -0.956 2.894 1.107 1.771 2.062 -1.122 12.046 -6.683 14.274 -7.919 2.904 -1.611 2.942 -1.485 -0.156 -3.196 -2.36 -1.302 -12.227 -6.718 -14.118 -7.782 -1.892 -1.063 -1.66 -0.59 -1.107 1.772 0.178 0.761 0.616 2.076 1.311 3.944a4 4 0 0 0 2.988 2.531l5.765 1.117a0.1 0.1 0 0 1 0 0.196l-5.778 1.116a4 4 0 0 0 -2.993 2.54z" id="ga"/></defs><g fill="none" fill-rule="evenodd"><path d="M0 0h24v24H0z"/><use fill="#528BCC" fill-rule="nonzero" xlink:href="#ga"/></g></svg><svg width="24" height="24" viewBox="0 0 24 24" id="snackbar_done_24" x="24" y="52" xmlns="http://www.w3.org/2000/svg"><g fill="none" fill-rule="evenodd"><circle fill="#528BCC" cx="12" cy="12" r="12"/><path stroke="#FFF" stroke-width="2" stroke-linecap="round" stroke-linejoin="round" d="M7.429 12.571l2.857 2.858 6.571 -6.572"/></g></svg><svg width="24" height="24" viewBox="0 0 24 24" id="snackbar_error_24" x="48" y="52" xmlns="http://www.w3.org/2000/svg"><defs><path d="M12 16a1.333 1.333 0 1 1 0 2.667A1.333 1.333 0 0 1 12 16zm0.324 -10.667a1 1 0 0 1 1 1.037l-0.266 7.276a1.059 1.059 0 0 1 -2.116 0l-0.265 -7.276a1 1 0 0 1 0.963 -1.036h0.684z" id="ia"/></defs><g fill="none" fill-rule="evenodd"><circle stroke="#EB4250" stroke-width="2" cx="12" cy="12" r="11"/><path opacity=".4" d="M4 4h16v16H4z"/><use fill="#EB4250" fill-rule="nonzero" xlink:href="#ia"/></g></svg></svg>